<svg xmlns="http://www.w3.org/2000/svg" viewBox="0 0 1200 760" fill="none">
  <defs>
    <linearGradient id="bg" x2="0" y2="1"><stop stop-color="#15162a"/><stop offset=".64" stop-color="#221a31"/><stop offset="1" stop-color="#090b12"/></linearGradient>
    <linearGradient id="screen" x2="1" y2="1"><stop stop-color="#ff2e64"/><stop offset=".52" stop-color="#9133c9"/><stop offset="1" stop-color="#00dced"/></linearGradient>
    <linearGradient id="floor" x2="0" y2="1"><stop stop-color="#23263b"/><stop offset="1" stop-color="#0b0d14"/></linearGradient>
    <filter id="blur"><feGaussianBlur stdDeviation="20"/></filter>
    <pattern id="grid" width="44" height="44" patternUnits="userSpaceOnUse"><path d="M0 0h44v44H0z" stroke="#37dfee" stroke-opacity=".14"/></pattern>
  </defs>
  <path fill="url(#bg)" d="M0 0h1200v760H0z"/>
  <path d="M0 70h1200M0 116h1200" stroke="#17dcf2" stroke-opacity=".28"/>
  <path d="M56 130h230v28H56zm866 0h222v28H922z" fill="#ff315f"/>
  <path d="M104 178h992v360H104z" fill="#080b13" stroke="#19e5f5" stroke-width="4"/>
  <path d="M128 202h944v310H128z" fill="url(#screen)"/>
  <path d="m128 460 202-110 145 76 165-200 117 142 90-94 225 105v133H128z" fill="#16162c" opacity=".91"/>
  <circle cx="606" cy="322" r="100" fill="#ff315f" opacity=".75"/>
  <path d="M538 320h136m-68-68v136" stroke="#fff" stroke-opacity=".65" stroke-width="4"/>
  <text x="600" y="456" fill="#fff" font-family="monospace" font-size="39" font-weight="700" letter-spacing="12" text-anchor="middle">PLAY / TOGETHER</text>
  <path d="M0 552h1200v208H0z" fill="url(#floor)"/>
  <path d="M0 552h1200v208H0z" fill="url(#grid)"/>
  <path d="M60 760 390 552h78L232 760zm1100 0L792 552h-78l237 208z" fill="#ff315f" fill-opacity=".3"/>
  <path d="M586 760V552h28v208" fill="#11e6f5" fill-opacity=".34"/>
  <g fill="#090b12"><path d="M90 632h120v128H90zm151 28h94v100h-94zm655-15h110v115H896zm138-38h105v153h-105z"/></g>
  <g fill="#ff315f"><rect x="111" y="653" width="11" height="50"/><rect x="926" y="653" width="11" height="49"/></g>
  <g fill="#12e7f5"><rect x="150" y="676" width="11" height="50"/><rect x="1064" y="678" width="11" height="52"/></g>
  <path d="M32 192h18v272H32zm1118 0h18v272h-18z" fill="#0be6f2" opacity=".42"/>
  <text x="55" y="87" fill="#f8f7ff" font-family="monospace" font-size="17" letter-spacing="6">XORDIUM // ARENA FEED 05</text>
</svg>
